<svg width="24" height="24" viewBox="0 0 24 24" fill="none" xmlns="http://www.w3.org/2000/svg">
<path d="M5.357 4.28577H18.6427C19.3543 4.28572 20.0389 4.55796 20.5561 5.04663C21.0733 5.5353 21.3839 6.20336 21.4241 6.91377L21.4284 7.07148V16.9286C21.4285 17.6402 21.1562 18.3248 20.6676 18.842C20.1789 19.3592 19.5108 19.6698 18.8004 19.7101L18.6427 19.7143H5.357C4.64546 19.7144 3.96086 19.4421 3.44366 18.9535C2.92646 18.4648 2.61586 17.7967 2.57557 17.0863L2.57129 16.9286V7.07148C2.57124 6.35993 2.84348 5.67534 3.33215 5.15814C3.82082 4.64094 4.48888 4.33034 5.19929 4.29005L5.357 4.28577H18.6427H5.357ZM20.1427 9.34719L12.2964 13.4272C12.2204 13.4667 12.1373 13.4906 12.0519 13.4975C11.9666 13.5044 11.8807 13.4942 11.7993 13.4675L11.7033 13.4272L3.857 9.34719V16.9286C3.85702 17.3051 3.99858 17.6678 4.25359 17.9447C4.50859 18.2216 4.8584 18.3925 5.23357 18.4235L5.357 18.4286H18.6427C19.0193 18.4286 19.3821 18.2869 19.659 18.0317C19.936 17.7765 20.1068 17.4265 20.1376 17.0512L20.1427 16.9286V9.34719V9.34719ZM18.6427 5.57148H5.357C4.98055 5.57149 4.61787 5.71306 4.34095 5.96806C4.06403 6.22307 3.89312 6.57288 3.86215 6.94805L3.857 7.07148V7.89777L11.9999 12.1321L20.1427 7.89777V7.07148C20.1427 6.6949 20.001 6.3321 19.7458 6.05516C19.4906 5.77822 19.1406 5.6074 18.7653 5.57662L18.6427 5.57148Z" fill="#536471"/>
</svg>
