<svg width="24" height="24" viewBox="0 0 24 24" fill="none" xmlns="http://www.w3.org/2000/svg">
<path d="M21.5303 14.4698L19.5 12.4395V9.75006C19.4977 7.89143 18.8063 6.09969 17.5595 4.72129C16.3127 3.34289 14.5991 2.47575 12.75 2.28755C12.75 2.28755 12.1718 2.25004 12 2.25C11.8282 2.24996 11.25 2.28755 11.25 2.28755C9.40093 2.47575 7.68732 3.34289 6.44053 4.72129C5.19373 6.09969 4.50233 7.89143 4.5 9.75006V12.4395L2.46975 14.4698C2.32909 14.6104 2.25004 14.8012 2.25 15V17.25C2.25 17.449 2.32902 17.6397 2.46967 17.7804C2.61032 17.921 2.80109 18 3 18H8.25V18.5828C8.23369 19.5343 8.56905 20.4583 9.19184 21.1778C9.81462 21.8973 10.681 22.3618 11.625 22.482C12.1464 22.5337 12.6728 22.4758 13.1704 22.3118C13.6681 22.1478 14.1259 21.8815 14.5144 21.53C14.9029 21.1785 15.2136 20.7496 15.4264 20.2708C15.6392 19.792 15.7494 19.274 15.75 18.75V18H21C21.1989 18 21.3897 17.921 21.5303 17.7804C21.671 17.6397 21.75 17.449 21.75 17.25V15C21.75 14.8012 21.6709 14.6104 21.5303 14.4698ZM14.25 18.75C14.25 19.3468 14.0129 19.9191 13.591 20.341C13.169 20.763 12.5967 21 12 21C11.4033 21 10.831 20.763 10.409 20.341C9.98705 19.9191 9.75 19.3468 9.75 18.75V18H14.25V18.75ZM20.25 16.5H3.75V15.3105L5.78025 13.2803C5.92091 13.1397 5.99996 12.9489 6 12.75V9.75006C6 8.15876 6.63214 6.63263 7.75736 5.50741C8.88258 4.38219 10.4087 3.75005 12 3.75005C13.5913 3.75005 15.1174 4.38219 16.2426 5.50741C17.3679 6.63263 18 8.15876 18 9.75006V12.75C18 12.9489 18.0791 13.1397 18.2197 13.2803L20.25 15.3105V16.5Z" fill="#536471"/>
</svg>
