<svg width="24" height="24" viewBox="0 0 24 24" fill="none" xmlns="http://www.w3.org/2000/svg">
<path d="M9.99621 2C8.74478 2.00067 7.51096 2.29492 6.39391 2.85909C5.27687 3.42326 4.30775 4.24163 3.56447 5.24841C2.82118 6.25519 2.32445 7.42231 2.1142 8.65595C1.90395 9.8896 1.98605 11.1554 2.35389 12.3515C2.72174 13.5477 3.36507 14.6408 4.23218 15.5432C5.0993 16.4455 6.166 17.1318 7.34657 17.547C8.52713 17.9621 9.78863 18.0945 11.0297 17.9335C12.2707 17.7725 13.4567 17.3226 14.4922 16.62L19.4362 21.56L20.4966 20.5L21.5562 19.44L16.6162 14.496C17.4335 13.2932 17.9074 11.8903 17.9871 10.4383C18.0668 8.98624 17.7491 7.53995 17.0684 6.25492C16.3876 4.96989 15.3694 3.89473 14.1234 3.14503C12.8773 2.39534 11.4504 1.99947 9.99621 2ZM4.99621 10C4.99621 8.67392 5.523 7.40215 6.46068 6.46447C7.39836 5.52678 8.67013 5 9.99621 5C11.3223 5 12.5941 5.52678 13.5317 6.46447C14.4694 7.40215 14.9962 8.67392 14.9962 10C14.9962 11.3261 14.4694 12.5979 13.5317 13.5355C12.5941 14.4732 11.3223 15 9.99621 15C8.67013 15 7.39836 14.4732 6.46068 13.5355C5.523 12.5979 4.99621 11.3261 4.99621 10Z" fill="#0F1419"/>
</svg>
