<svg width="18" height="18" viewBox="0 0 18 18" fill="none" xmlns="http://www.w3.org/2000/svg">
<path d="M9 12C10.2426 12 11.25 10.9926 11.25 9.75C11.25 8.50736 10.2426 7.5 9 7.5C7.75736 7.5 6.75 8.50736 6.75 9.75C6.75 10.9926 7.75736 12 9 12Z" stroke="#536471" stroke-width="2" stroke-linecap="round" stroke-linejoin="round"/>
<path d="M3.75 5.25H5.25C5.64782 5.25 6.02936 5.09196 6.31066 4.81066C6.59196 4.52936 6.75 4.14782 6.75 3.75C6.75 3.55109 6.82902 3.36032 6.96967 3.21967C7.11032 3.07902 7.30109 3 7.5 3H9M15.75 8.25V13.5C15.75 13.8978 15.592 14.2794 15.3107 14.5607C15.0294 14.842 14.6478 15 14.25 15H3.75C3.35218 15 2.97064 14.842 2.68934 14.5607C2.40804 14.2794 2.25 13.8978 2.25 13.5V6.75C2.25 6.35218 2.40804 5.97064 2.68934 5.68934C2.97064 5.40804 3.35218 5.25 3.75 5.25M11.25 4.5H15.75M13.5 2.25V6.75" stroke="#536471" stroke-width="2" stroke-linecap="round" stroke-linejoin="round"/>
</svg>
