<svg width="18" height="18" viewBox="0 0 18 18" fill="none" xmlns="http://www.w3.org/2000/svg">
<path d="M9.01587 1.01404C4.03603 1.01404 0.000990504 4.33318 0.000990504 8.42953C0.000990504 10.1276 0.702182 11.6827 1.86438 12.9287C1.34033 14.337 0.248926 15.527 0.231317 15.5402C-0.00200304 15.7898 -0.0636347 16.1552 0.0684331 16.4671C0.204938 16.7791 0.506476 16.9859 0.845274 16.9859C3.01119 16.9859 4.68757 16.0678 5.74411 15.337C6.73021 15.6596 7.86424 15.845 9.01587 15.845C13.9957 15.845 18 12.5248 18 8.42953C18 4.33425 13.9957 1.01404 9.01587 1.01404ZM9.01939 14.1338C8.07731 14.1338 7.14861 13.9867 6.259 13.7017L5.45779 13.4476L4.77103 13.9379C4.26918 14.2986 3.57784 14.7001 2.74599 14.9717C3.00573 14.5396 3.25208 14.0537 3.44613 13.5368L3.82014 12.5385L3.09395 11.7588C2.45897 11.0713 1.69297 9.93402 1.69297 8.42953C1.69297 5.28329 4.97706 2.72531 9.01833 2.72531C13.0596 2.72531 16.3437 5.28329 16.3437 8.42953C16.3437 11.5758 13.0589 14.1338 9.01939 14.1338Z" fill="#536471"/>
</svg>
