<svg width="24" height="24" viewBox="0 0 24 24" fill="none" xmlns="http://www.w3.org/2000/svg">
<path d="M12 2C17.523 2 22 6.477 22 12C22 17.523 17.523 22 12 22C6.477 22 2 17.523 2 12C2 6.477 6.477 2 12 2ZM12 3.395C9.71781 3.395 7.5291 4.3016 5.91535 5.91535C4.3016 7.5291 3.395 9.71781 3.395 12C3.395 14.2822 4.3016 16.4709 5.91535 18.0847C7.5291 19.6984 9.71781 20.605 12 20.605C14.2822 20.605 16.4709 19.6984 18.0847 18.0847C19.6984 16.4709 20.605 14.2822 20.605 12C20.605 9.71781 19.6984 7.5291 18.0847 5.91535C16.4709 4.3016 14.2822 3.395 12 3.395V3.395ZM14.048 5.488C14.6981 5.73383 15.3061 6.07929 15.85 6.512C15.975 6.608 16.095 6.71 16.213 6.819C16.235 6.838 16.254 6.858 16.275 6.879C16.603 7.182 16.901 7.523 17.165 7.889C17.202 7.94 17.241 7.987 17.275 8.036C17.339 8.13 17.399 8.228 17.459 8.326C17.5622 8.49129 17.6573 8.66149 17.744 8.836C17.797 8.936 17.844 9.045 17.893 9.151C17.926 9.224 17.963 9.299 17.993 9.377C18.066 9.559 18.131 9.742 18.19 9.929C18.209 9.991 18.224 10.057 18.242 10.119C18.3434 10.4748 18.4154 10.8384 18.457 11.206C18.464 11.272 18.474 11.342 18.479 11.407C18.499 11.622 18.512 11.839 18.512 12.057C18.5107 12.483 18.4716 12.908 18.395 13.327C18.381 13.4 18.369 13.474 18.355 13.544C18.315 13.734 18.269 13.92 18.215 14.104C17.706 13.871 17.108 13.528 16.952 13.151C16.668 12.471 15.912 12.131 15.604 11.255C15.097 9.805 15.77 9.843 15.864 8.943C15.908 8.521 15.604 8.433 15.203 8.605C14.267 8.998 13.95 8.847 13.761 8.142C13.572 7.439 13.761 7.243 13.761 7.243C13.123 7.313 13.099 6.536 13.43 6.34C13.66 6.208 13.855 5.803 14.048 5.488V5.488ZM11.374 9.797C11.964 9.527 12.509 9.43 12.437 8.966C12.367 8.507 12.201 8.165 11.279 8.165C10.357 8.165 10.759 9.43 10.003 8.675C9.247 7.925 10.168 8.119 10.546 7.948C10.925 7.776 11.303 7.071 10.641 7.021C9.98 6.974 10.121 7.313 9.601 7.121C9.081 6.925 8.845 7.8 8.513 7.678C8.295 7.596 7.71 7.146 7.322 6.703C6.53027 7.39163 5.90348 8.24945 5.488 9.213C5.601 10.52 6.292 11.206 6.292 11.206C6.292 11.206 6.647 12.057 8.775 13.103C8.775 13.103 9.175 13.127 8.703 12.642C8.231 12.155 7.71 11.547 8.301 11.232C8.891 10.913 9.058 10.94 9.2 11.525C9.341 12.109 9.815 11.765 9.861 11.206C9.909 10.649 10.783 10.066 11.374 9.796V9.797ZM10.924 12.737C11.942 12.737 11.847 13.054 12.651 13.762C13.454 14.466 13.029 15.171 12.626 15.707C12.225 16.241 11.87 16.847 11.681 17.945C11.491 19.039 10.995 18.259 10.831 17.992C10.665 17.723 10.405 17.481 10.477 16.362C10.547 15.244 9.79 15.902 9.531 14.442C9.271 12.984 9.909 12.738 10.925 12.738L10.924 12.737ZM15.901 13.701C16.172 13.528 16.821 13.979 16.681 14.454C16.538 14.929 16.09 14.661 15.865 14.454C15.64 14.248 15.628 13.871 15.901 13.701V13.701Z" fill="#536471"/>
</svg>
