<svg width="24" height="24" viewBox="0 0 24 24" fill="none" xmlns="http://www.w3.org/2000/svg">
<path d="M21 15V4.5C21 4.10218 20.842 3.72064 20.5607 3.43934C20.2794 3.15804 19.8978 3 19.5 3H4.5C4.10218 3 3.72064 3.15804 3.43934 3.43934C3.15804 3.72064 3 4.10218 3 4.5V19.5C3 19.8978 3.15804 20.2794 3.43934 20.5607C3.72064 20.842 4.10218 21 4.5 21H19.5C19.8978 21 20.2794 20.842 20.5607 20.5607C20.842 20.2794 21 19.8978 21 19.5V15ZM19.5 4.5V13.1906L16.8094 10.5C16.527 10.2217 16.1464 10.0658 15.75 10.0658C15.3536 10.0658 14.973 10.2217 14.6906 10.5L10.5 14.6906L8.55938 12.75C8.27698 12.4717 7.89645 12.3158 7.5 12.3158C7.10355 12.3158 6.72302 12.4717 6.44062 12.75L4.5 14.6906V4.5H19.5ZM19.5 19.5H4.5V16.8094L7.5 13.8094L9.44062 15.75C9.72302 16.0283 10.1036 16.1842 10.5 16.1842C10.8964 16.1842 11.277 16.0283 11.5594 15.75L15.75 11.5594L19.5 15.3094V19.5ZM8.57812 9.42188C8.47332 9.31744 8.39034 9.19321 8.33401 9.0564C8.27768 8.91959 8.24912 8.77295 8.25 8.625C8.25 8.32663 8.36853 8.04048 8.5795 7.8295C8.79048 7.61853 9.07663 7.5 9.375 7.5C9.67337 7.5 9.95952 7.61853 10.1705 7.8295C10.3815 8.04048 10.5 8.32663 10.5 8.625C10.5 8.92337 10.3815 9.20952 10.1705 9.4205C9.95952 9.63147 9.67337 9.75 9.375 9.75C9.07695 9.74772 8.79136 9.63013 8.57812 9.42188Z" fill="#536471"/>
</svg>
