<svg width="60" height="60" viewBox="0 0 60 60" fill="none" xmlns="http://www.w3.org/2000/svg">
<rect width="60" height="60" rx="30" fill="#D6D6D6"/>
<path d="M30.0002 11.333C32.2103 11.333 34.3299 12.211 35.8927 13.7738C37.4555 15.3366 38.3335 17.4562 38.3335 19.6663C38.3335 21.8765 37.4555 23.9961 35.8927 25.5589C34.3299 27.1217 32.2103 27.9997 30.0002 27.9997C27.79 27.9997 25.6704 27.1217 24.1076 25.5589C22.5448 23.9961 21.6668 21.8765 21.6668 19.6663C21.6668 17.4562 22.5448 15.3366 24.1076 13.7738C25.6704 12.211 27.79 11.333 30.0002 11.333ZM30.0002 32.1663C39.2085 32.1663 46.6668 35.8955 46.6668 40.4997V44.6663H13.3335V40.4997C13.3335 35.8955 20.7918 32.1663 30.0002 32.1663Z" fill="#868686"/>
</svg>
